#!OML:ASF X:\für Bonn\!DataBase\2005_08_11_Bastian_Final\c3d\Bastian.ASF
:FULLY-SPECIFIED
:DEGREES
355
root 22.3026 17.0514 -1.90638 364.052 -63.8178 13.8324
lowerback 65.6964 -0.0424703 9.92492
upperback 16.3515 3.25041 -0.563267
thorax -2.28685 1.30601 -6.00157
lowerneck -6.49022 -10.4436 4.44425
upperneck -29.8364 -12.0046 16.4748
head -7.42689 -8.54102 5.34436
rclavicle -5.08889e-014 1.15891e-013
rhumerus 55.711 24.7188 -33.0936
rradius 27.2484
rwrist -15.9413
rhand -33.1648 -5.61258
rfingers 7.12502
rthumb -6.37336 -35.4967
lclavicle -5.08889e-014 1.15891e-013
lhumerus -8.31596 -28.6888 86.1442
lradius 35.0218
lwrist 31.4985
lhand -13.4691 -14.3981
lfingers 7.12502
lthumb 12.641 15.1993
rfemur -44.218 -10.594 18.0203
rtibia 53.2235
rfoot -17.7203 -10.5382
rtoes -0.0274258
lfemur -42.1291 -3.29547 -28.5072
ltibia 35.5614
lfoot -0.488305 -15.364
ltoes -10.9807
356
root 22.2711 17.0709 -1.90064 364.063 -63.9573 13.1722
lowerback 65.3402 0.0588636 9.78794
upperback 16.3835 3.23261 -0.602288
thorax -2.2753 1.28742 -5.99154
lowerneck -6.40531 -10.4395 4.27721
upperneck -29.9016 -11.978 16.5843
head -7.44092 -8.52557 5.41411
rclavicle 3.18055e-014 2.00773e-014
rhumerus 55.2598 25.902 -33.715
rradius 27.1733
rwrist -15.3822
rhand -32.8855 -5.10369
rfingers 7.12502
rthumb -6.10364 -34.9958
lclavicle 3.18055e-014 2.00773e-014
lhumerus -8.30426 -28.4685 86.0369
lradius 34.6259
lwrist 31.5292
lhand -13.5417 -14.3777
lfingers 7.12502
lthumb 12.571 15.2241
rfemur -43.1749 -10.2747 18.2023
rtibia 52.7567
rfoot -17.7071 -10.6749
rtoes -0.020848
lfemur -41.2979 -3.32665 -28.0471
ltibia 35.4579
lfoot -0.726452 -15.0853
ltoes -11.0313
357
root 22.2375 17.089 -1.89357 364.083 -64.1138 12.4917
lowerback 64.9843 0.187562 9.6139
upperback 16.4093 3.22757 -0.609967
thorax -2.27327 1.26765 -5.93567
lowerneck -6.31151 -10.4274 4.06525
upperneck -29.96 -11.9399 16.6988
head -7.45023 -8.49996 5.49171
rclavicle 3.18055e-014 -1.78906e-015
rhumerus 54.8315 27.1579 -34.1933
rradius 27.1565
rwrist -14.9385
rhand -32.5756 -4.62789
rfingers 7.12502
rthumb -5.80443 -34.5284
lclavicle 3.18055e-014 -1.78906e-015
lhumerus -8.30477 -28.2043 85.969
lradius 34.2324
lwrist 31.5207
lhand -13.6051 -14.3211
lfingers 7.12502
lthumb 12.5098 15.2844
rfemur -42.1043 -9.97122 18.3969
rtibia 52.2856
rfoot -17.6797 -10.7629
rtoes 0.050334
lfemur -40.4602 -3.33742 -27.601
ltibia 35.3736
lfoot -1.00461 -14.8334
ltoes -11.3629
358
root 22.2012 17.1059 -1.88558 364.142 -64.2661 11.7902
lowerback 64.6412 0.349843 9.35457
upperback 16.3704 3.22862 -0.573901
thorax -2.35271 1.23577 -5.7982
lowerneck -6.22813 -10.3878 3.78842
upperneck -29.8862 -11.8762 16.7959
head -7.40874 -8.44132 5.55906
rclavicle 0 7.30534e-014
rhumerus 54.4827 28.6216 -34.4205
rradius 27.226
rwrist -14.7428
rhand -32.3797 -4.22206
rfingers 7.12502
rthumb -5.61538 -34.1277
lclavicle 0 7.30534e-014
lhumerus -8.44544 -27.828 85.9772
lradius 33.8608
lwrist 31.4335
lhand -13.6943 -14.2793
lfingers 7.12502
lthumb 12.4238 15.3315
rfemur -41.0663 -9.6987 18.6197
rtibia 51.8284
rfoot -17.6858 -10.853
rtoes 0.0368396
lfemur -39.6332 -3.34033 -27.1491
ltibia 35.3013
lfoot -1.29226 -14.5943
ltoes -11.3721
359
root 22.163 17.1226 -1.87684 364.093 -64.4348 11.2037
lowerback 64.3181 0.51436 9.07586
upperback 16.3199 3.2241 -0.562527
thorax -2.44478 1.20381 -5.67735
lowerneck -6.26033 -10.3541 3.55645
upperneck -29.7333 -11.8468 16.8507
head -7.32581 -8.39214 5.59143
rclavicle 8.26944e-014 3.52346e-014
rhumerus 54.0279 30.0257 -34.7867
rradius 27.2785
rwrist -14.482
rhand -32.128 -3.8005
rfingers 7.12502
rthumb -5.37232 -33.7124
lclavicle 8.26944e-014 3.52346e-014
lhumerus -8.58131 -27.4055 85.9787
lradius 33.47
lwrist 31.2546
lhand -13.6998 -14.2659
lfingers 7.12502
lthumb 12.4186 15.3452
rfemur -40.0269 -9.4006 18.7785
rtibia 51.3844
rfoot -17.6653 -10.9749
rtoes -0.223442
lfemur -38.7934 -3.32525 -26.7746
ltibia 35.2392
lfoot -1.58679 -14.3572
ltoes -11.6381
360
root 22.1226 17.1372 -1.86701 364.001 -64.5959 10.6716
lowerback 63.9471 0.694154 8.77216
upperback 16.3261 3.2158 -0.516612
thorax -2.47518 1.16921 -5.50542
lowerneck -6.49697 -10.3229 3.24908
upperneck -29.4855 -11.8425 16.9333
head -7.16519 -8.34121 5.62077
rclavicle 9.54166e-014 -1.89467e-014
rhumerus 53.7352 31.4356 -34.8112
rradius 27.4284
rwrist -14.401
rhand -31.9061 -3.51552
rfingers 7.12502
rthumb -5.15809 -33.4327
lclavicle 9.54166e-014 -1.89467e-014
lhumerus -8.58811 -26.9038 85.9889
lradius 33.0549
lwrist 31.0673
lhand -13.6607 -14.251
lfingers 7.12502
lthumb 12.4563 15.3578
rfemur -38.9922 -9.13739 18.9214
rtibia 50.9593
rfoot -17.682 -11.0555
rtoes -0.27975
lfemur -37.9489 -3.3401 -26.4183
ltibia 35.1842
lfoot -1.88873 -14.1157
ltoes -11.6495
361
root 22.0793 17.1514 -1.85648 363.884 -64.76 10.1685
lowerback 63.5637 0.861154 8.48046
upperback 16.3454 3.19816 -0.497251
thorax -2.48754 1.13583 -5.36376
lowerneck -6.8311 -10.2912 2.97849
upperneck -29.1885 -11.8467 17.019
head -6.97493 -8.29345 5.63537
rclavicle 4.45278e-014 -4.22914e-014
rhumerus 53.3593 32.7733 -34.9981
rradius 27.5515
rwrist -14.2476
rhand -31.6478 -3.21515
rfingers 7.12502
rthumb -4.90863 -33.1383
lclavicle 4.45278e-014 -4.22914e-014
lhumerus -8.60125 -26.5117 85.9226
lradius 32.7231
lwrist 30.912
lhand -13.6278 -14.1806
lfingers 7.12502
lthumb 12.488 15.4263
rfemur -37.9456 -8.86909 19.0525
rtibia 50.5542
rfoot -17.7321 -11.1392
rtoes -0.200304
lfemur -37.0957 -3.29961 -26.1058
ltibia 35.1284
lfoot -2.19011 -13.935
ltoes -11.6689
